<?xml version="1.0" standalone="no"?>
<!DOCTYPE svg PUBLIC "-//W3C//DTD SVG 20010904//EN"
 "http://www.w3.org/TR/2001/REC-SVG-20010904/DTD/svg10.dtd">
<svg version="1.0" xmlns="http://www.w3.org/2000/svg"
 width="512.000000pt" height="512.000000pt" viewBox="0 0 512.000000 512.000000"
 preserveAspectRatio="xMidYMid meet">
<metadata>
Created by potrace 1.14, written by Peter Selinger 2001-2017
</metadata>
<g transform="translate(0.000000,512.000000) scale(0.100000,-0.100000)"
fill="#000000" stroke="none">
<path d="M2305 5109 c-495 -50 -959 -241 -1355 -556 -107 -85 -294 -272 -383
-383 -138 -171 -267 -385 -357 -589 -38 -88 -113 -298 -124 -352 -3 -13 -14
-62 -25 -109 -22 -98 -27 -127 -46 -270 -17 -139 -13 -520 8 -650 25 -149 27
-159 53 -265 169 -672 604 -1246 1209 -1597 170 -99 451 -215 612 -253 119
-28 196 -45 233 -50 25 -3 52 -8 60 -10 77 -19 505 -28 645 -12 349 38 757
172 1010 332 28 17 57 34 65 37 26 10 242 168 310 227 362 314 622 699 770
1141 21 64 41 128 43 141 3 13 12 51 20 84 20 77 45 220 54 315 12 116 9 505
-5 600 -86 586 -335 1088 -737 1485 -135 134 -296 266 -403 330 -9 6 -36 23
-59 38 -74 48 -304 162 -415 205 -201 78 -415 131 -632 156 -119 14 -436 17
-551 5z m410 -871 c68 -22 148 -73 191 -120 63 -72 118 -187 129 -276 2 -15 4
-545 5 -1178 0 -848 3 -1160 12 -1185 18 -52 46 -85 94 -109 86 -45 74 -71
-126 -269 -168 -166 -242 -213 -378 -236 -154 -27 -309 27 -414 144 -48 54
-105 170 -118 241 -7 35 -10 467 -10 1202 0 1026 -2 1152 -16 1195 -17 51 -48
84 -102 110 -19 9 -36 23 -39 31 -11 27 31 85 142 197 190 192 273 246 410
270 84 14 140 10 220 -17z m-1015 -788 c41 -21 83 -69 95 -110 10 -33 10
-1457 0 -1490 -12 -42 -54 -89 -97 -111 -47 -24 -132 -22 -171 4 -54 35 -728
730 -752 774 -22 43 -24 116 -4 155 8 15 142 158 299 319 433 443 440 450 473
464 46 20 112 18 157 -5z m1874 6 c35 -15 66 -44 475 -464 151 -155 283 -295
294 -312 26 -41 26 -128 1 -169 -11 -17 -150 -164 -309 -327 -409 -419 -424
-433 -463 -450 -104 -43 -227 22 -248 131 -4 22 -7 360 -7 750 0 705 0 710 21
752 45 88 147 126 236 89z"/>
</g>
</svg>
